<svg version="1.1" id="Layer_1" xmlns="http://www.w3.org/2000/svg" xmlns:xlink="http://www.w3.org/1999/xlink" x="0px" y="0px"
	 width="100%" viewBox="0 0 1200 1200" enable-background="new 0 0 1200 1200" xml:space="preserve">
<path fill="#000000" opacity="1.000000" stroke="none" 
	d="
M637.000000,1201.000000 
	C424.666656,1201.000000 212.833328,1201.000000 1.000000,1201.000000 
	C1.000000,801.000000 1.000000,401.000000 1.000000,1.000000 
	C401.000000,1.000000 801.000000,1.000000 1201.000000,1.000000 
	C1201.000000,401.000000 1201.000000,801.000000 1201.000000,1201.000000 
	C1013.166687,1201.000000 825.333313,1201.000000 637.000000,1201.000000 
M1109.909424,645.136292 
	C1110.272461,636.870422 1110.977295,628.602478 1110.928467,620.339050 
	C1110.821655,602.236877 1110.622559,584.125427 1109.896851,566.040344 
	C1109.422241,554.210571 1108.628418,542.314453 1106.779053,530.637817 
	C1104.081055,513.602783 1100.773926,496.630188 1096.887451,479.824951 
	C1089.835938,449.332550 1079.823120,419.727539 1066.548218,391.402924 
	C1057.816040,372.771057 1048.145142,354.511566 1037.815674,336.711426 
	C1021.705444,308.949768 1002.338379,283.414307 980.866882,259.580719 
	C970.999023,248.627380 960.352783,238.333145 949.591248,228.239243 
	C939.136719,218.433182 928.453552,208.797256 917.216553,199.914139 
	C892.739929,180.564896 866.651428,163.534531 838.986816,149.093613 
	C807.270996,132.537949 774.155212,119.537941 739.666138,109.714531 
	C703.757935,99.486916 667.223206,93.298965 630.098267,91.271179 
	C609.088013,90.123573 587.893066,91.003189 566.851501,92.201805 
	C549.239990,93.205025 531.549866,95.026115 514.221741,98.245918 
	C493.116669,102.167549 472.124359,107.133781 451.492249,113.069717 
	C411.068146,124.699890 373.140045,142.163422 337.080170,163.897949 
	C303.863983,183.918518 273.446442,207.486877 245.477356,234.220093 
	C235.669464,243.594574 226.447815,253.662186 217.675201,264.020325 
	C206.130005,277.652130 194.677811,291.442688 184.280792,305.949890 
	C164.004379,334.242126 146.926025,364.442200 133.117279,396.456421 
	C122.974571,419.971313 114.475945,444.030487 107.947990,468.804413 
	C102.132118,490.875977 97.208450,513.098633 94.963150,535.855713 
	C93.705154,548.606018 91.469849,561.328308 91.216614,574.093750 
	C90.808205,594.681152 91.144897,615.320251 92.177124,635.886902 
	C92.924927,650.786560 95.138840,665.625305 97.000481,680.453430 
	C99.988457,704.252991 105.846359,727.431946 112.838860,750.330383 
	C125.123566,790.559204 142.135727,828.630798 163.869827,864.710938 
	C185.242142,900.190552 210.565216,932.490356 239.622864,961.867798 
	C259.423645,981.886597 280.946808,999.987549 303.912750,1016.307617 
	C336.701172,1039.607544 371.621826,1059.032959 408.995758,1074.029175 
	C445.472412,1088.665405 482.939514,1099.669922 521.934082,1104.994507 
	C539.046692,1107.331177 556.217468,1110.171387 573.424438,1110.683838 
	C604.567505,1111.611572 635.809692,1112.147095 666.758789,1106.992798 
	C682.912903,1104.302490 699.250916,1102.376221 715.165344,1098.650513 
	C763.551208,1087.323120 809.597351,1069.826782 852.846558,1045.061890 
	C897.510437,1019.486694 937.665405,988.369141 972.878235,950.752563 
	C991.195557,931.184753 1007.925964,910.434265 1023.060669,888.365967 
	C1043.252930,858.923157 1059.996948,827.588806 1073.559448,794.586914 
	C1084.814697,767.199280 1093.568115,738.968872 1099.807007,710.037903 
	C1102.868652,695.840271 1104.722900,681.377502 1106.967163,667.010376 
	C1108.054565,660.049316 1108.781860,653.031982 1109.909424,645.136292 
z"/>
<path fill="#FFEDA0" opacity="1.000000" stroke="none" 
	d="
M1109.790771,645.588257 
	C1108.781860,653.031982 1108.054565,660.049316 1106.967163,667.010376 
	C1104.722900,681.377502 1102.868652,695.840271 1099.807007,710.037903 
	C1093.568115,738.968872 1084.814697,767.199280 1073.559448,794.586914 
	C1059.996948,827.588806 1043.252930,858.923157 1023.060669,888.365967 
	C1007.925964,910.434265 991.195557,931.184753 972.878235,950.752563 
	C937.665405,988.369141 897.510437,1019.486694 852.846558,1045.061890 
	C809.597351,1069.826782 763.551208,1087.323120 715.165344,1098.650513 
	C699.250916,1102.376221 682.912903,1104.302490 666.758789,1106.992798 
	C635.809692,1112.147095 604.567505,1111.611572 573.424438,1110.683838 
	C556.217468,1110.171387 539.046692,1107.331177 521.934082,1104.994507 
	C482.939514,1099.669922 445.472412,1088.665405 408.995758,1074.029175 
	C371.621826,1059.032959 336.701172,1039.607544 303.912750,1016.307617 
	C280.946808,999.987549 259.423645,981.886597 239.622864,961.867798 
	C210.565216,932.490356 185.242142,900.190552 163.869827,864.710938 
	C142.135727,828.630798 125.123566,790.559204 112.838860,750.330383 
	C105.846359,727.431946 99.988457,704.252991 97.000481,680.453430 
	C95.138840,665.625305 92.924927,650.786560 92.177124,635.886902 
	C91.144897,615.320251 90.808205,594.681152 91.216614,574.093750 
	C91.469849,561.328308 93.705154,548.606018 94.963150,535.855713 
	C97.208450,513.098633 102.132118,490.875977 107.947990,468.804413 
	C114.475945,444.030487 122.974571,419.971313 133.117279,396.456421 
	C146.926025,364.442200 164.004379,334.242126 184.280792,305.949890 
	C194.677811,291.442688 206.130005,277.652130 217.675201,264.020325 
	C226.447815,253.662186 235.669464,243.594574 245.477356,234.220093 
	C273.446442,207.486877 303.863983,183.918518 337.080170,163.897949 
	C373.140045,142.163422 411.068146,124.699890 451.492249,113.069717 
	C472.124359,107.133781 493.116669,102.167549 514.221741,98.245918 
	C531.549866,95.026115 549.239990,93.205025 566.851501,92.201805 
	C587.893066,91.003189 609.088013,90.123573 630.098267,91.271179 
	C667.223206,93.298965 703.757935,99.486916 739.666138,109.714531 
	C774.155212,119.537941 807.270996,132.537949 838.986816,149.093613 
	C866.651428,163.534531 892.739929,180.564896 917.216553,199.914139 
	C928.453552,208.797256 939.136719,218.433182 949.591248,228.239243 
	C960.352783,238.333145 970.999023,248.627380 980.866882,259.580719 
	C1002.338379,283.414307 1021.705444,308.949768 1037.815674,336.711426 
	C1048.145142,354.511566 1057.816040,372.771057 1066.548218,391.402924 
	C1079.823120,419.727539 1089.835938,449.332550 1096.887451,479.824951 
	C1100.773926,496.630188 1104.081055,513.602783 1106.779053,530.637817 
	C1108.628418,542.314453 1109.422241,554.210571 1109.896851,566.040344 
	C1110.622559,584.125427 1110.821655,602.236877 1110.928467,620.339050 
	C1110.977295,628.602478 1110.272461,636.870422 1109.790771,645.588257 
M571.088379,774.995850 
	C562.567627,766.693604 552.409241,763.394592 540.625977,764.953918 
	C518.352844,767.901306 504.107300,789.770630 510.552307,810.671814 
	C518.698120,837.088745 532.391724,860.852173 549.747620,882.335510 
	C570.866028,908.476257 596.378540,929.533691 626.316650,944.801270 
	C659.553040,961.750854 695.084961,970.511047 732.391357,970.704895 
	C765.435730,970.876587 797.267090,964.376892 827.778381,951.230591 
	C861.552673,936.678345 890.311707,915.388977 914.152161,887.640137 
	C932.756775,865.985535 946.852539,841.529114 956.541748,814.528625 
	C969.544128,778.295593 973.771973,741.108154 968.715088,703.043579 
	C965.021484,675.240784 956.707031,648.742859 943.461853,623.870361 
	C929.070679,596.845886 910.264160,573.460327 886.976196,553.569031 
	C866.235779,535.853760 842.912354,522.645203 817.660461,512.626404 
	C798.390930,504.981110 775.928162,515.222534 769.581360,534.695435 
	C764.943604,548.924866 768.138245,561.480347 777.477905,572.872009 
	C776.845947,573.411072 776.177429,573.913025 775.587280,574.494568 
	C734.437805,615.045227 693.304321,655.612061 652.147339,696.155151 
	C625.341980,722.560669 598.503235,748.932251 571.088379,774.995850 
M505.407074,234.017731 
	C477.830627,229.533279 450.296844,229.934860 422.894165,235.234833 
	C293.387817,260.282806 209.832642,385.391296 235.863434,515.149658 
	C262.514923,648.002014 397.659180,731.665527 528.533203,696.332214 
	C644.074280,665.138489 717.979858,554.744019 702.098816,436.365265 
	C693.956909,375.674683 665.982788,325.506165 619.227478,286.016693 
	C586.435181,258.320343 548.519470,241.418930 505.407074,234.017731 
z"/>
<path fill="#222323" opacity="1.000000" stroke="none" 
	d="
M505.841309,234.065247 
	C548.519470,241.418930 586.435181,258.320343 619.227478,286.016693 
	C665.982788,325.506165 693.956909,375.674683 702.098816,436.365265 
	C717.979858,554.744019 644.074280,665.138489 528.533203,696.332214 
	C397.659180,731.665527 262.514923,648.002014 235.863434,515.149658 
	C209.832642,385.391296 293.387817,260.282806 422.894165,235.234833 
	C450.296844,229.934860 477.830627,229.533279 505.841309,234.065247 
M478.110687,630.748901 
	C484.708374,629.873718 491.355286,629.269775 497.896271,628.082397 
	C584.905762,612.286682 644.211182,527.080750 628.733643,440.212799 
	C612.711609,350.289032 529.363098,291.688843 439.116150,306.897614 
	C347.939880,322.263000 287.119354,414.106750 308.463287,504.193573 
	C327.005432,582.454590 395.555023,633.900879 478.110687,630.748901 
z"/>
<path fill="#222222" opacity="1.000000" stroke="none" 
	d="
M778.084106,572.471985 
	C768.138245,561.480347 764.943604,548.924866 769.581360,534.695435 
	C775.928162,515.222534 798.390930,504.981110 817.660461,512.626404 
	C842.912354,522.645203 866.235779,535.853760 886.976196,553.569031 
	C910.264160,573.460327 929.070679,596.845886 943.461853,623.870361 
	C956.707031,648.742859 965.021484,675.240784 968.715088,703.043579 
	C973.771973,741.108154 969.544128,778.295593 956.541748,814.528625 
	C946.852539,841.529114 932.756775,865.985535 914.152161,887.640137 
	C890.311707,915.388977 861.552673,936.678345 827.778381,951.230591 
	C797.267090,964.376892 765.435730,970.876587 732.391357,970.704895 
	C695.084961,970.511047 659.553040,961.750854 626.316650,944.801270 
	C596.378540,929.533691 570.866028,908.476257 549.747620,882.335510 
	C532.391724,860.852173 518.698120,837.088745 510.552307,810.671814 
	C504.107300,789.770630 518.352844,767.901306 540.625977,764.953918 
	C552.409241,763.394592 562.567627,766.693604 571.536560,775.455750 
	C574.998108,780.822632 578.879089,785.401123 580.881958,790.690674 
	C592.576477,821.575317 611.636963,846.777405 638.248840,866.190369 
	C662.704346,884.030273 690.177002,894.216431 720.331238,896.698059 
	C755.143616,899.562927 787.745911,892.141724 817.794189,874.239502 
	C843.486694,858.932312 863.378845,838.010132 877.680969,811.697388 
	C891.163818,786.891785 897.839661,760.330505 897.419006,732.238708 
	C896.935547,699.946106 887.815552,670.125916 869.659912,643.163330 
	C851.527771,616.235413 827.460266,596.687256 797.825378,583.622437 
	C790.943848,580.588684 784.648926,576.224182 778.084106,572.471985 
z"/>
<path fill="#44C8E5" opacity="1.000000" stroke="none" 
	d="
M777.781006,572.671997 
	C784.648926,576.224182 790.943848,580.588684 797.825378,583.622437 
	C827.460266,596.687256 851.527771,616.235413 869.659912,643.163330 
	C887.815552,670.125916 896.935547,699.946106 897.419006,732.238708 
	C897.839661,760.330505 891.163818,786.891785 877.680969,811.697388 
	C863.378845,838.010132 843.486694,858.932312 817.794189,874.239502 
	C787.745911,892.141724 755.143616,899.562927 720.331238,896.698059 
	C690.177002,894.216431 662.704346,884.030273 638.248840,866.190369 
	C611.636963,846.777405 592.576477,821.575317 580.881958,790.690674 
	C578.879089,785.401123 574.998108,780.822632 571.832153,775.617371 
	C598.503235,748.932251 625.341980,722.560669 652.147339,696.155151 
	C693.304321,655.612061 734.437805,615.045227 775.587280,574.494568 
	C776.177429,573.913025 776.845947,573.411072 777.781006,572.671997 
M721.000244,666.215820 
	C722.698120,671.312012 723.538269,676.951294 726.327698,681.356262 
	C729.300598,686.051086 728.547180,688.602905 724.943787,692.163147 
	C703.740540,713.112732 682.721924,734.249268 661.653381,755.335022 
	C654.632263,762.361938 651.069641,770.901855 650.871521,780.799072 
	C650.451050,801.800232 667.861023,819.142029 688.957336,817.875793 
	C700.015076,817.212097 708.734680,811.991699 716.344177,804.374390 
	C745.060608,775.629028 773.798523,746.905151 802.532043,718.176941 
	C809.025513,711.684570 814.729248,704.841125 816.817932,695.432495 
	C819.158447,684.889343 817.976135,674.860168 811.130249,666.754639 
	C802.044678,655.997375 791.946289,646.070984 781.944458,636.128235 
	C779.222595,633.422485 775.481567,631.458984 771.871033,629.975952 
	C747.458679,619.948547 721.238403,637.608215 721.000244,666.215820 
z"/>
<path fill="#44C8E5" opacity="1.000000" stroke="none" 
	d="
M477.641663,630.779114 
	C395.555023,633.900879 327.005432,582.454590 308.463287,504.193573 
	C287.119354,414.106750 347.939880,322.263000 439.116150,306.897614 
	C529.363098,291.688843 612.711609,350.289032 628.733643,440.212799 
	C644.211182,527.080750 584.905762,612.286682 497.896271,628.082397 
	C491.355286,629.269775 484.708374,629.873718 477.641663,630.779114 
M504.161163,464.500000 
	C504.097534,442.184998 504.367493,419.862213 503.846222,397.557892 
	C503.529053,383.986786 493.206757,371.151489 480.373260,366.966248 
	C464.942383,361.933929 449.042267,364.501465 433.327728,364.600037 
	C429.134644,364.626282 424.784210,365.772217 420.792816,367.203674 
	C403.603882,373.368164 393.502411,394.444183 399.408600,411.724396 
	C404.494934,426.605835 415.199677,434.959076 431.000854,437.561218 
	C431.000854,439.409760 431.000854,441.210571 431.000854,443.011383 
	C431.000854,460.332428 431.000336,477.653503 431.001068,494.974548 
	C431.001587,507.798798 430.977509,520.623108 431.010925,533.447266 
	C431.072693,557.167053 451.873047,574.245483 474.612457,570.239136 
	C491.350494,567.290100 504.027191,552.135193 504.130646,533.451660 
	C504.256073,510.801758 504.160950,488.150604 504.161163,464.500000 
z"/>
<path fill="#222323" opacity="1.000000" stroke="none" 
	d="
M720.999756,665.768066 
	C721.238403,637.608215 747.458679,619.948547 771.871033,629.975952 
	C775.481567,631.458984 779.222595,633.422485 781.944458,636.128235 
	C791.946289,646.070984 802.044678,655.997375 811.130249,666.754639 
	C817.976135,674.860168 819.158447,684.889343 816.817932,695.432495 
	C814.729248,704.841125 809.025513,711.684570 802.532043,718.176941 
	C773.798523,746.905151 745.060608,775.629028 716.344177,804.374390 
	C708.734680,811.991699 700.015076,817.212097 688.957336,817.875793 
	C667.861023,819.142029 650.451050,801.800232 650.871521,780.799072 
	C651.069641,770.901855 654.632263,762.361938 661.653381,755.335022 
	C682.721924,734.249268 703.740540,713.112732 724.943787,692.163147 
	C728.547180,688.602905 729.300598,686.051086 726.327698,681.356262 
	C723.538269,676.951294 722.698120,671.312012 720.999756,665.768066 
z"/>
<path fill="#222222" opacity="1.000000" stroke="none" 
	d="
M504.161194,465.000000 
	C504.160950,488.150604 504.256073,510.801758 504.130646,533.451660 
	C504.027191,552.135193 491.350494,567.290100 474.612457,570.239136 
	C451.873047,574.245483 431.072693,557.167053 431.010925,533.447266 
	C430.977509,520.623108 431.001587,507.798798 431.001068,494.974548 
	C431.000336,477.653503 431.000854,460.332428 431.000854,443.011383 
	C431.000854,441.210571 431.000854,439.409760 431.000854,437.561218 
	C415.199677,434.959076 404.494934,426.605835 399.408600,411.724396 
	C393.502411,394.444183 403.603882,373.368164 420.792816,367.203674 
	C424.784210,365.772217 429.134644,364.626282 433.327728,364.600037 
	C449.042267,364.501465 464.942383,361.933929 480.373260,366.966248 
	C493.206757,371.151489 503.529053,383.986786 503.846222,397.557892 
	C504.367493,419.862213 504.097534,442.184998 504.161194,465.000000 
z"/>
</svg>